<?xml version="1.0" encoding="utf-8"?>
<!-- Generator: Adobe Illustrator 16.0.0, SVG Export Plug-In . SVG Version: 6.00 Build 0)  -->
<!DOCTYPE svg PUBLIC "-//W3C//DTD SVG 1.1//EN" "http://www.w3.org/Graphics/SVG/1.1/DTD/svg11.dtd">
<svg version="1.1" id="图层_1" xmlns="http://www.w3.org/2000/svg" xmlns:xlink="http://www.w3.org/1999/xlink" x="0px" y="0px"
	 width="200px" height="200px" viewBox="0 0 200 200" enable-background="new 0 0 200 200" xml:space="preserve">
<rect y="0" fill="#E8E8E8" width="200" height="200"/>
<g>
	<path fill="#FFFFFF" d="M84.03,80.076v9.208c0,0.12-0.006,0.247-0.024,0.379c-0.007,0.134-0.013,0.263-0.013,0.38
		c0.067,2.394,0.439,4.716,1.104,6.975c0.663,2.266,1.616,4.327,2.864,6.188c1.244,1.863,2.772,3.484,4.585,4.863
		c1.812,1.367,3.915,2.373,6.311,3.002v4.645c-2.127-0.338-4.079-0.914-5.859-1.725c-1.779-0.809-3.393-1.807-4.839-2.992
		c-1.454-1.184-2.728-2.537-3.828-4.059c-1.102-1.525-2.024-3.168-2.772-4.931c-0.75,1.763-1.673,3.405-2.776,4.931
		c-1.099,1.521-2.372,2.875-3.806,4.059c-1.441,1.186-3.05,2.184-4.824,2.992c-1.777,0.807-3.727,1.387-5.858,1.725v-4.645
		c2.367-0.629,4.461-1.635,6.278-3.002c1.812-1.379,3.339-3.002,4.583-4.863c1.244-1.861,2.199-3.923,2.866-6.188
		c0.667-2.258,1.032-4.581,1.107-6.975v-9.968H84.03z"/>
	<path fill="#FFFFFF" d="M131.033,83.687c0.978,0,2.855-0.833,2.855-2.643c0-1.816-1.55-2.411-1.784-3.244
		c-0.239-0.83-0.091-1.516-0.091-1.516s-1.399,0.557-1.876,1.485c-0.437,0.861-0.936,1.918-0.607,2.547c0,0-0.034,0.106-0.279-0.188
		c-0.269-0.332-0.325-0.609-0.352-1.288c0,0-0.817,0.911-0.659,2.079C128.43,82.357,129.331,83.687,131.033,83.687"/>
	<polygon fill="#FFFFFF" points="71.91,98.02 67.059,98.02 64.896,82.646 69.753,82.646 	"/>
	<polygon fill="#FFFFFF" points="91.249,98.02 96.103,98.02 98.265,82.646 93.405,82.646 	"/>
	<path fill="#FFFFFF" d="M108.654,95.557h3.335v-4.498h-11.644v4.498h3.412v5.51h-3.773v4.533h3.773v5.33
		c0,0.652,0.116,1.266,0.359,1.828c0.243,0.57,0.584,1.068,1.017,1.494c0.435,0.424,0.939,0.762,1.505,1.014
		c0.569,0.252,1.183,0.377,1.831,0.377h3.3v-4.527h-1.303c-0.507,0-0.937-0.178-1.291-0.525c-0.349-0.354-0.521-0.783-0.521-1.291
		V105.6h3.7v-4.533h-3.7V95.557z"/>
	<path fill="#FFFFFF" d="M107.26,81.123c0.033-0.435,0.072-0.881,0.124-1.342h-4.896c-0.072,1.211-0.29,2.278-0.654,3.208
		c-0.362,0.931-0.98,1.616-1.85,2.053v5.108c1.236-0.239,2.276-0.637,3.135-1.199c0.861-0.55,1.564-1.23,2.12-2.024h7.112v-4.536
		h-5.296C107.156,81.984,107.219,81.557,107.26,81.123"/>
	<polygon fill="#FFFFFF" points="130.301,98.641 118.735,105.959 118.735,101.453 130.301,94.129 	"/>
	<polygon fill="#FFFFFF" points="130.301,106.133 118.735,113.451 118.735,108.943 130.301,101.623 	"/>
	<path fill="#FFFFFF" d="M135.705,87.18v-4.534h-1.666h-4.609h-2.463v-2.863h-4.897v2.863h-8.74v4.534h8.74v2.426h-8.229v26.076
		h4.898v-5.092v-1.98v-4.53v-2.683v-4.535v-0.391v-2.328h3.334v2.328v0.391v4.535v2.683v4.53v1.98v4.477h4.897v-5.656v-0.803v-4.531
		v-2.682v-4.533v-1.627v-1.091h3.334v1.091v1.627v4.535v2.683v4.53v0.803v0.691c0,0.285-0.098,0.539-0.305,0.758
		c-0.204,0.215-0.469,0.324-0.784,0.324h-1.05v4.496h3.406c1.02,0,1.875-0.34,2.573-1.033c0.701-0.686,1.053-1.539,1.053-2.551
		v-22.49h-8.23v-2.424h8.738V87.18z"/>
</g>
</svg>
